<svg xmlns="http://www.w3.org/2000/svg" xmlns:xlink="http://www.w3.org/1999/xlink" preserveAspectRatio="xMidYMid" width="110" height="117" viewBox="0 0 110 117">
  <defs>
    <style>
      .cls-1 {
        fill: #d9d9d9;
        fill-rule: evenodd;
      }
    </style>
  </defs>
  <path d="M0.117,107.762 C4.726,95.462 12.058,93.131 17.925,92.074 C23.789,91.013 38.037,87.405 39.291,84.015 C39.613,83.141 39.768,74.300 39.820,69.571 C39.715,69.447 39.617,69.330 39.538,69.232 L39.538,69.227 C32.578,61.065 32.165,53.443 32.165,53.443 C32.165,53.443 28.397,54.081 26.302,44.960 C24.209,35.837 28.397,37.961 28.397,37.961 C22.951,9.123 45.184,1.276 45.184,1.276 C49.262,0.031 52.473,-0.144 54.917,0.109 C57.369,-0.143 60.572,0.031 64.655,1.276 C64.655,1.276 86.886,9.123 81.443,37.961 C81.443,37.961 85.632,35.838 83.538,44.960 C81.443,54.081 77.669,53.443 77.669,53.443 C77.669,53.443 77.255,60.663 70.814,68.571 L70.805,68.563 C70.590,68.813 70.375,69.049 70.158,69.288 C70.205,74.095 70.358,83.101 70.695,84.015 C71.948,87.404 86.196,91.012 92.060,92.074 C97.926,93.131 105.257,95.462 109.866,107.762 C114.475,120.065 -4.492,120.065 0.117,107.762 Z" class="cls-1"/>
</svg>